# Blender v2.82 (sub 7) OBJ File: 'Chair_Room.blend'
# www.blender.org
mtllib Chair_Room.mtl
o Plane.003
v -2.513670 0.899849 1.619343
v -1.181763 0.899849 1.619343
v -2.513670 0.899849 0.287435
v -1.181763 0.899849 0.287435
v -2.513670 1.029057 0.287435
v -2.513670 1.029057 1.619343
v -1.181763 1.029057 1.619343
v -1.181763 1.029057 0.287435
v -2.315862 0.899849 1.619343
v -2.315862 0.899849 0.287435
v -2.315862 1.029057 1.619343
v -2.315862 1.029057 0.287435
v -1.372977 0.899849 1.619343
v -1.372977 1.029057 1.619343
v -1.372977 0.899849 0.287435
v -1.372977 1.029057 0.287435
v -2.513670 0.899849 0.491837
v -1.181763 0.899849 0.491837
v -2.513670 1.029057 0.491837
v -1.181763 1.029057 0.491837
v -2.315862 1.029057 0.491837
v -2.315862 0.899849 0.491837
v -1.372977 1.029057 0.491837
v -1.372977 0.899849 0.491837
v -2.513670 0.899849 1.407107
v -2.513670 1.029057 1.407107
v -2.315862 0.899849 1.407107
v -1.372977 0.899849 1.407107
v -1.181763 0.899849 1.407107
v -1.181763 1.029057 1.407107
v -2.315862 1.029057 1.407107
v -1.372977 1.029057 1.407107
v -2.513670 0.000721 1.407107
v -2.513670 0.000721 1.619343
v -1.372977 0.000721 1.619343
v -1.181763 0.000721 1.619343
v -1.181763 0.000721 0.491837
v -1.181763 0.000721 0.287435
v -2.315862 0.000721 0.287435
v -2.513670 0.000721 0.287435
v -2.315862 0.000721 1.619343
v -2.315862 0.000721 1.407107
v -1.372977 0.000721 0.287435
v -1.372977 0.000721 1.407107
v -2.513670 0.000721 0.491837
v -2.315862 0.000721 0.491837
v -1.372977 0.000721 0.491837
v -1.181763 0.000721 1.407107
v -1.181763 2.249772 0.491837
v -1.181763 2.249772 0.287435
v -2.315862 2.249772 0.287435
v -2.513670 2.249772 0.287435
v -1.372977 2.249772 0.287435
v -2.315862 2.249772 0.491837
v -1.372977 2.249772 0.491837
v -2.513670 2.249772 0.491837
vt 0.148515 0.846535
vt 0.000000 0.846535
vt 0.000000 0.846535
vt 0.148515 0.846535
vt 0.856436 0.846535
vt 1.000000 0.846535
vt 1.000000 0.846535
vt 0.856436 0.846535
vt 1.000000 0.846535
vt 1.000000 1.000000
vt 1.000000 1.000000
vt 0.000000 0.159348
vt 0.000000 0.000000
vt 0.000000 0.000000
vt 0.000000 0.159348
vt 0.148515 1.000000
vt 0.000000 1.000000
vt 0.000000 1.000000
vt 0.148515 1.000000
vt 0.856436 0.000000
vt 1.000000 0.000000
vt 1.000000 0.000000
vt 0.856436 0.000000
vt 0.148515 0.000000
vt 0.148515 0.000000
vt 0.856436 1.000000
vt 0.856436 1.000000
vt 0.148515 1.000000
vt 0.856436 1.000000
vt 0.856436 0.000000
vt 1.000000 0.000000
vt 0.148515 0.846535
vt 0.148515 0.846535
vt 0.856436 0.846535
vt 0.148515 0.159348
vt 0.856436 0.159348
vt 0.148515 0.159348
vt 0.856436 0.159348
vt 0.000000 0.846535
vt 1.000000 0.159348
vt 1.000000 0.159348
vt 1.000000 0.159348
vt 0.856436 0.159348
vt 0.000000 0.159348
vt 0.000000 0.000000
vt 0.856436 0.846535
vt 0.856436 1.000000
vt 1.000000 1.000000
vt 1.000000 0.846535
vt 0.000000 1.000000
vt 0.148515 1.000000
vt 0.148515 0.159348
vt 0.148515 0.000000
vt 1.000000 1.000000
vt 0.000000 0.846535
vt 0.000000 1.000000
vn 0.0000 0.0000 1.0000
vn 1.0000 0.0000 0.0000
vn -1.0000 0.0000 0.0000
vn 0.0000 0.0000 -1.0000
vn 0.0000 -1.0000 0.0000
vn 0.0000 1.0000 0.0000
usemtl Material.003
s off
f 22/1/1 17/2/1 45/3/1 46/4/1
f 23/5/1 20/6/1 49/7/1 55/8/1
f 18/9/2 4/10/2 8/11/2 20/6/2
f 25/12/3 1/13/3 6/14/3 26/15/3
f 10/16/4 3/17/4 5/18/4 12/19/4
f 13/20/1 2/21/1 7/22/1 14/23/1
f 1/13/1 9/24/1 11/25/1 6/14/1
f 15/26/4 10/16/4 12/19/4 16/27/4
f 16/27/4 12/19/4 51/28/4 53/29/4
f 2/21/1 13/20/1 35/30/1 36/31/1
f 4/10/4 15/26/4 16/27/4 8/11/4
f 9/24/1 13/20/1 14/23/1 11/25/1
f 21/32/1 23/5/1 55/8/1 54/33/1
f 22/1/5 10/16/5 15/26/5 24/34/5
f 27/35/5 22/1/5 24/34/5 28/36/5
f 31/37/6 32/38/6 23/5/6 21/32/6
f 25/12/5 17/2/5 22/1/5 27/35/5
f 26/15/6 31/37/6 21/32/6 19/39/6
f 3/17/3 17/2/3 19/39/3 5/18/3
f 29/40/2 18/9/2 20/6/2 30/41/2
f 32/38/6 30/41/6 20/6/6 23/5/6
f 28/36/5 24/34/5 18/9/5 29/40/5
f 28/36/4 29/40/4 48/42/4 44/43/4
f 14/23/6 7/22/6 30/41/6 32/38/6
f 2/21/2 29/40/2 30/41/2 7/22/2
f 6/14/6 11/25/6 31/37/6 26/15/6
f 1/13/3 25/12/3 33/44/3 34/45/3
f 11/25/6 14/23/6 32/38/6 31/37/6
f 9/24/5 27/35/5 28/36/5 13/20/5
f 17/2/3 25/12/3 26/15/3 19/39/3
f 47/46/5 43/47/5 38/48/5 37/49/5
f 45/3/5 40/50/5 39/51/5 46/4/5
f 35/30/5 44/43/5 48/42/5 36/31/5
f 34/45/5 33/44/5 42/52/5 41/53/5
f 4/10/2 18/9/2 37/49/2 38/48/2
f 3/17/4 10/16/4 39/51/4 40/50/4
f 10/16/2 22/1/2 46/4/2 39/51/2
f 29/40/2 2/21/2 36/31/2 48/42/2
f 25/12/4 27/35/4 42/52/4 33/44/4
f 27/35/2 9/24/2 41/53/2 42/52/2
f 9/24/1 1/13/1 34/45/1 41/53/1
f 13/20/3 28/36/3 44/43/3 35/30/3
f 24/34/3 15/26/3 43/47/3 47/46/3
f 17/2/3 3/17/3 40/50/3 45/3/3
f 18/9/1 24/34/1 47/46/1 37/49/1
f 15/26/4 4/10/4 38/48/4 43/47/4
f 55/8/6 49/7/6 50/54/6 53/29/6
f 56/55/6 54/33/6 51/28/6 52/56/6
f 54/33/6 55/8/6 53/29/6 51/28/6
f 12/19/4 5/18/4 52/56/4 51/28/4
f 8/11/4 16/27/4 53/29/4 50/54/4
f 5/18/3 19/39/3 56/55/3 52/56/3
f 19/39/1 21/32/1 54/33/1 56/55/1
f 20/6/2 8/11/2 50/54/2 49/7/2
