# Blender v2.82 (sub 7) OBJ File: 'house.blend'
# www.blender.org
mtllib house.mtl
o Book0.002_Book0.005
v 0.542517 0.817431 -0.048837
v 0.542517 0.817431 -0.268837
v 0.542517 1.117431 -0.268837
v 0.542517 1.117431 -0.048837
v 0.543677 0.817431 -0.049997
v 0.543677 0.817431 -0.268837
v 0.543677 1.117431 -0.268837
v 0.543677 1.117431 -0.049997
v 0.586357 0.817431 -0.049997
v 0.586357 0.817431 -0.268837
v 0.586357 1.117431 -0.268837
v 0.586357 1.117431 -0.049997
v 0.587517 0.817431 -0.048837
v 0.587517 0.817431 -0.268837
v 0.587517 1.117431 -0.268837
v 0.587517 1.117431 -0.048837
v 0.543677 1.116271 -0.049997
v 0.543677 1.116271 -0.267677
v 0.586357 1.116271 -0.267677
v 0.586357 1.116271 -0.049997
v 0.543677 0.818591 -0.049997
v 0.543677 0.818591 -0.267677
v 0.586357 0.818591 -0.267677
v 0.586357 0.818591 -0.049997
vt 0.618538 0.546384
vt 0.000079 0.999921
vt 0.000079 0.546385
vt 0.000000 0.000000
vt 0.000000 0.000000
vt 0.000000 0.000000
vt 0.000000 0.000000
vt 0.000000 0.000000
vt 0.000000 0.000000
vt 0.000079 0.000079
vt 0.618538 0.453616
vt 0.000079 0.453616
vt 0.000000 0.000000
vt 0.000000 0.000000
vt 0.000000 0.000000
vt 0.000000 0.000000
vt 0.000000 0.000000
vt 0.000000 0.000000
vt 0.000000 0.000000
vt 0.000000 0.000000
vt 0.000000 0.000000
vt 0.618538 0.999921
vt 0.000000 0.000000
vt 0.618538 0.000079
vt 0.058245 0.000024
vt 0.000024 0.296965
vt 0.000024 0.000024
vt 0.000024 0.703036
vt 0.058245 0.999976
vt 0.000024 0.999976
vt 0.058245 0.296965
vt 0.058245 0.703036
vn -1.0000 0.0000 0.0000
vn 1.0000 0.0000 0.0000
vn 0.0000 0.0000 1.0000
vn 0.0000 0.0000 -1.0000
vn 0.0000 1.0000 0.0000
vn 0.0000 -1.0000 0.0000
vn 0.0000 -1.0000 -0.0001
usemtl Book0_material.005
s off
f 4/1/1 2/2/1 1/3/1
f 6/4/2 8/5/2 5/6/2
f 12/7/1 10/8/1 9/9/1
f 14/10/2 16/11/2 13/12/2
f 13/12/3 4/1/3 1/3/3
f 8/5/4 9/9/4 5/6/4
f 16/13/5 8/5/5 4/14/5
f 5/6/6 13/15/6 1/16/6
f 2/17/6 5/6/6 1/16/6
f 9/9/6 14/18/6 13/15/6
f 8/5/5 3/19/5 4/14/5
f 12/7/5 15/20/5 11/21/5
f 3/19/4 6/4/4 2/17/4
f 11/21/4 14/18/4 10/8/4
f 4/1/1 3/22/1 2/2/1
f 6/4/2 7/23/2 8/5/2
f 12/7/1 11/21/1 10/8/1
f 14/10/2 15/24/2 16/11/2
f 13/12/3 16/11/3 4/1/3
f 8/5/4 12/7/4 9/9/4
f 16/13/5 12/7/5 8/5/5
f 5/6/7 9/9/7 13/15/7
f 2/17/6 6/4/6 5/6/6
f 9/9/6 10/8/6 14/18/6
f 8/5/5 7/23/5 3/19/5
f 12/7/5 16/13/5 15/20/5
f 3/19/4 7/23/4 6/4/4
f 11/21/4 15/20/4 14/18/4
usemtl Book0_side_material.005
f 20/25/5 18/26/5 17/27/5
f 22/28/6 24/29/6 21/30/6
f 19/31/4 22/28/4 18/26/4
f 20/25/5 19/31/5 18/26/5
f 22/28/6 23/32/6 24/29/6
f 19/31/4 23/32/4 22/28/4
o Book1.002_Book1.005
v 0.589571 0.817780 -0.054130
v 0.589571 0.817780 -0.274130
v 0.589571 1.117780 -0.274130
v 0.589571 1.117780 -0.054130
v 0.590221 0.817780 -0.054780
v 0.590221 0.817780 -0.274130
v 0.590221 1.117780 -0.274130
v 0.590221 1.117780 -0.054780
v 0.633921 0.817780 -0.054780
v 0.633921 0.817780 -0.274130
v 0.633921 1.117780 -0.274130
v 0.633921 1.117780 -0.054780
v 0.634571 0.817780 -0.054130
v 0.634571 0.817780 -0.274130
v 0.634571 1.117780 -0.274130
v 0.634571 1.117780 -0.054130
v 0.590221 1.117131 -0.054780
v 0.590221 1.117131 -0.273480
v 0.633921 1.117131 -0.273480
v 0.633921 1.117131 -0.054780
v 0.590221 0.818430 -0.054780
v 0.590221 0.818430 -0.273480
v 0.633921 0.818430 -0.273480
v 0.633921 0.818430 -0.054780
vt 0.618538 0.546384
vt 0.000079 0.999921
vt 0.000079 0.546385
vt 0.000000 0.000000
vt 0.000000 0.000000
vt 0.000000 0.000000
vt 0.000000 0.000000
vt 0.000000 0.000000
vt 0.000000 0.000000
vt 0.000079 0.000079
vt 0.618538 0.453616
vt 0.000079 0.453616
vt 0.000000 0.000000
vt 0.000000 0.000000
vt 0.000000 0.000000
vt 0.000000 0.000000
vt 0.000000 0.000000
vt 0.000000 0.000000
vt 0.000000 0.000000
vt 0.000000 0.000000
vt 0.000000 0.000000
vt 0.618538 0.999921
vt 0.000000 0.000000
vt 0.618538 0.000079
vt 0.000024 0.999976
vt 0.059388 0.702884
vt 0.059388 0.999976
vt 0.059388 0.297116
vt 0.000024 0.000024
vt 0.059388 0.000024
vt 0.000024 0.702884
vt 0.000024 0.297116
vn -1.0000 0.0000 0.0000
vn 1.0000 0.0000 0.0000
vn 0.0000 0.0000 1.0000
vn 0.0000 0.0000 -1.0000
vn 0.0000 1.0000 -0.0002
vn 0.0000 -1.0000 0.0003
vn 0.0000 -1.0000 0.0000
vn 0.0000 1.0000 0.0000
vn 0.0000 -1.0000 -0.0001
usemtl Book1_material.005
s off
f 28/33/8 26/34/8 25/35/8
f 30/36/9 32/37/9 29/38/9
f 36/39/8 34/40/8 33/41/8
f 38/42/9 40/43/9 37/44/9
f 37/44/10 28/33/10 25/35/10
f 32/37/11 33/41/11 29/38/11
f 40/45/12 32/37/12 28/46/12
f 29/38/13 37/47/13 25/48/13
f 26/49/14 29/38/14 25/48/14
f 33/41/14 38/50/14 37/47/14
f 32/37/15 27/51/15 28/46/15
f 36/39/15 39/52/15 35/53/15
f 27/51/11 30/36/11 26/49/11
f 35/53/11 38/50/11 34/40/11
f 28/33/8 27/54/8 26/34/8
f 30/36/9 31/55/9 32/37/9
f 36/39/8 35/53/8 34/40/8
f 38/42/9 39/56/9 40/43/9
f 37/44/10 40/43/10 28/33/10
f 32/37/11 36/39/11 33/41/11
f 40/45/15 36/39/15 32/37/15
f 29/38/16 33/41/16 37/47/16
f 26/49/14 30/36/14 29/38/14
f 33/41/14 34/40/14 38/50/14
f 32/37/15 31/55/15 27/51/15
f 36/39/15 40/45/15 39/52/15
f 27/51/11 31/55/11 30/36/11
f 35/53/11 39/52/11 38/50/11
usemtl Book1_side_material.005
f 44/57/15 42/58/15 41/59/15
f 46/60/14 48/61/14 45/62/14
f 43/63/11 46/60/11 42/58/11
f 44/57/15 43/63/15 42/58/15
f 46/60/14 47/64/14 48/61/14
f 43/63/11 47/64/11 46/60/11
o Book2.002_Book2.005
v 0.637472 0.818589 -0.058913
v 0.637472 0.818589 -0.278913
v 0.637472 1.118589 -0.278913
v 0.637472 1.118589 -0.058913
v 0.638232 0.818589 -0.059673
v 0.638232 0.818589 -0.278913
v 0.638232 1.118589 -0.278913
v 0.638232 1.118589 -0.059673
v 0.681712 0.818589 -0.059673
v 0.681712 0.818589 -0.278913
v 0.681712 1.118589 -0.278913
v 0.681712 1.118589 -0.059673
v 0.682472 0.818589 -0.058913
v 0.682472 0.818589 -0.278913
v 0.682472 1.118589 -0.278913
v 0.682472 1.118589 -0.058913
v 0.638232 1.117829 -0.059673
v 0.638232 1.117829 -0.278153
v 0.681712 1.117829 -0.278153
v 0.681712 1.117829 -0.059673
v 0.638232 0.819349 -0.059673
v 0.638232 0.819349 -0.278153
v 0.681712 0.819349 -0.278153
v 0.681712 0.819349 -0.059673
vt 0.618538 0.546384
vt 0.000079 0.999921
vt 0.000079 0.546385
vt 0.000000 0.000000
vt 0.000000 0.000000
vt 0.000000 0.000000
vt 0.000000 0.000000
vt 0.000000 0.000000
vt 0.000000 0.000000
vt 0.000079 0.000079
vt 0.618538 0.453616
vt 0.000079 0.453616
vt 0.000000 0.000000
vt 0.000000 0.000000
vt 0.000000 0.000000
vt 0.000000 0.000000
vt 0.000000 0.000000
vt 0.000000 0.000000
vt 0.000000 0.000000
vt 0.000000 0.000000
vt 0.000000 0.000000
vt 0.618538 0.999921
vt 0.000000 0.000000
vt 0.618538 0.000079
vt 0.059143 0.000024
vt 0.000024 0.297084
vt 0.000024 0.000024
vt 0.000024 0.702916
vt 0.059143 0.999976
vt 0.000024 0.999976
vt 0.059143 0.297084
vt 0.059143 0.702916
vn -1.0000 0.0000 0.0000
vn 1.0000 0.0000 0.0000
vn 0.0000 0.0000 1.0000
vn 0.0000 0.0000 -1.0000
vn 0.0000 1.0000 -0.0002
vn 0.0000 -1.0000 0.0000
vn 0.0000 1.0000 0.0000
vn 0.0000 -1.0000 -0.0001
usemtl Book2_material.005
s off
f 52/65/17 50/66/17 49/67/17
f 54/68/18 56/69/18 53/70/18
f 60/71/17 58/72/17 57/73/17
f 62/74/18 64/75/18 61/76/18
f 61/76/19 52/65/19 49/67/19
f 56/69/20 57/73/20 53/70/20
f 64/77/21 56/69/21 52/78/21
f 53/70/22 61/79/22 49/80/22
f 50/81/22 53/70/22 49/80/22
f 57/73/22 62/82/22 61/79/22
f 56/69/23 51/83/23 52/78/23
f 60/71/23 63/84/23 59/85/23
f 51/83/20 54/68/20 50/81/20
f 59/85/20 62/82/20 58/72/20
f 52/65/17 51/86/17 50/66/17
f 54/68/18 55/87/18 56/69/18
f 60/71/17 59/85/17 58/72/17
f 62/74/18 63/88/18 64/75/18
f 61/76/19 64/75/19 52/65/19
f 56/69/20 60/71/20 57/73/20
f 64/77/23 60/71/23 56/69/23
f 53/70/24 57/73/24 61/79/24
f 50/81/22 54/68/22 53/70/22
f 57/73/22 58/72/22 62/82/22
f 56/69/23 55/87/23 51/83/23
f 60/71/23 64/77/23 63/84/23
f 51/83/20 55/87/20 54/68/20
f 59/85/20 63/84/20 62/82/20
usemtl Book2_side_material.005
f 68/89/23 66/90/23 65/91/23
f 70/92/22 72/93/22 69/94/22
f 67/95/20 70/92/20 66/90/20
f 68/89/23 67/95/23 66/90/23
f 70/92/22 71/96/22 72/93/22
f 67/95/20 71/96/20 70/92/20
o Book3.002_Book3.005
v 0.683393 0.817472 -0.059447
v 0.683393 0.817472 -0.279447
v 0.683393 1.117472 -0.279447
v 0.683393 1.117472 -0.059447
v 0.683563 0.817472 -0.059617
v 0.683563 0.817472 -0.279447
v 0.683563 1.117472 -0.279447
v 0.683563 1.117472 -0.059617
v 0.728223 0.817472 -0.059617
v 0.728223 0.817472 -0.279447
v 0.728223 1.117472 -0.279447
v 0.728223 1.117472 -0.059617
v 0.728393 0.817472 -0.059447
v 0.728393 0.817472 -0.279447
v 0.728393 1.117472 -0.279447
v 0.728393 1.117472 -0.059447
v 0.683563 1.117302 -0.059617
v 0.683563 1.117302 -0.279277
v 0.728223 1.117302 -0.279277
v 0.728223 1.117302 -0.059617
v 0.683563 0.817642 -0.059617
v 0.683563 0.817642 -0.279277
v 0.728223 0.817642 -0.279277
v 0.728223 0.817642 -0.059617
vt 0.618538 0.546384
vt 0.000079 0.999921
vt 0.000079 0.546385
vt 0.000000 0.000000
vt 0.000000 0.000000
vt 0.000000 0.000000
vt 0.000000 0.000000
vt 0.000000 0.000000
vt 0.000000 0.000000
vt 0.000079 0.000079
vt 0.618538 0.453616
vt 0.000079 0.453616
vt 0.000000 0.000000
vt 0.000000 0.000000
vt 0.000000 0.000000
vt 0.000000 0.000000
vt 0.000000 0.000000
vt 0.000000 0.000000
vt 0.000000 0.000000
vt 0.000000 0.000000
vt 0.000000 0.000000
vt 0.618538 0.999921
vt 0.000000 0.000000
vt 0.618538 0.000079
vt 0.060456 0.000025
vt 0.000025 0.297257
vt 0.000025 0.000025
vt 0.000025 0.702742
vt 0.060456 0.999975
vt 0.000025 0.999975
vt 0.060456 0.297257
vt 0.060456 0.702742
vn -1.0000 0.0000 0.0000
vn 1.0000 0.0000 0.0000
vn 0.0000 0.0000 1.0000
vn 0.0000 0.0000 -1.0000
vn 0.0000 1.0000 -0.0005
vn 0.0000 -1.0000 0.0000
vn 0.0000 1.0000 0.0000
vn 0.0000 -1.0000 0.0001
usemtl Book3_material.005
s off
f 76/97/25 74/98/25 73/99/25
f 78/100/26 80/101/26 77/102/26
f 84/103/25 82/104/25 81/105/25
f 86/106/26 88/107/26 85/108/26
f 85/108/27 76/97/27 73/99/27
f 80/101/28 81/105/28 77/102/28
f 88/109/29 80/101/29 76/110/29
f 77/102/30 85/111/30 73/112/30
f 74/113/30 77/102/30 73/112/30
f 81/105/30 86/114/30 85/111/30
f 80/101/31 75/115/31 76/110/31
f 84/103/31 87/116/31 83/117/31
f 75/115/28 78/100/28 74/113/28
f 83/117/28 86/114/28 82/104/28
f 76/97/25 75/118/25 74/98/25
f 78/100/26 79/119/26 80/101/26
f 84/103/25 83/117/25 82/104/25
f 86/106/26 87/120/26 88/107/26
f 85/108/27 88/107/27 76/97/27
f 80/101/28 84/103/28 81/105/28
f 88/109/31 84/103/31 80/101/31
f 77/102/32 81/105/32 85/111/32
f 74/113/30 78/100/30 77/102/30
f 81/105/30 82/104/30 86/114/30
f 80/101/31 79/119/31 75/115/31
f 84/103/31 88/109/31 87/116/31
f 75/115/28 79/119/28 78/100/28
f 83/117/28 87/116/28 86/114/28
usemtl Book3_side_material.005
f 92/121/31 90/122/31 89/123/31
f 94/124/30 96/125/30 93/126/30
f 91/127/28 94/124/28 90/122/28
f 92/121/31 91/127/31 90/122/31
f 94/124/30 95/128/30 96/125/30
f 91/127/28 95/128/28 94/124/28
o Book4.002_Book4.005
v 0.730597 0.819158 -0.061413
v 0.730597 0.819158 -0.281413
v 0.730597 1.119158 -0.281413
v 0.730597 1.119158 -0.061413
v 0.731317 0.819158 -0.062133
v 0.731317 0.819158 -0.281413
v 0.731317 1.119158 -0.281413
v 0.731317 1.119158 -0.062133
v 0.774877 0.819158 -0.062133
v 0.774877 0.819158 -0.281413
v 0.774877 1.119158 -0.281413
v 0.774877 1.119158 -0.062133
v 0.775597 0.819158 -0.061413
v 0.775597 0.819158 -0.281413
v 0.775597 1.119158 -0.281413
v 0.775597 1.119158 -0.061413
v 0.731317 1.118438 -0.062133
v 0.731317 1.118438 -0.280693
v 0.774877 1.118438 -0.280693
v 0.774877 1.118438 -0.062133
v 0.731317 0.819878 -0.062133
v 0.731317 0.819878 -0.280693
v 0.774877 0.819878 -0.280693
v 0.774877 0.819878 -0.062133
vt 0.618538 0.546384
vt 0.000079 0.999921
vt 0.000079 0.546385
vt 0.000000 0.000000
vt 0.000000 0.000000
vt 0.000000 0.000000
vt 0.000000 0.000000
vt 0.000000 0.000000
vt 0.000000 0.000000
vt 0.000079 0.000079
vt 0.618538 0.453616
vt 0.000079 0.453616
vt 0.000000 0.000000
vt 0.000000 0.000000
vt 0.000000 0.000000
vt 0.000000 0.000000
vt 0.000000 0.000000
vt 0.000000 0.000000
vt 0.000000 0.000000
vt 0.000000 0.000000
vt 0.000000 0.000000
vt 0.618538 0.999921
vt 0.000000 0.000000
vt 0.618538 0.000079
vt 0.059232 0.000024
vt 0.000024 0.297095
vt 0.000024 0.000024
vt 0.000024 0.702904
vt 0.059232 0.999976
vt 0.000024 0.999976
vt 0.059232 0.297095
vt 0.059232 0.702904
vn -1.0000 0.0000 0.0000
vn 1.0000 0.0000 0.0000
vn 0.0000 0.0000 1.0000
vn 0.0000 0.0000 -1.0000
vn 0.0000 1.0000 -0.0000
vn 0.0000 -1.0000 0.0000
usemtl Book4_material.005
s off
f 100/129/33 98/130/33 97/131/33
f 102/132/34 104/133/34 101/134/34
f 108/135/33 106/136/33 105/137/33
f 110/138/34 112/139/34 109/140/34
f 109/140/35 100/129/35 97/131/35
f 104/133/36 105/137/36 101/134/36
f 112/141/37 104/133/37 100/142/37
f 101/134/38 109/143/38 97/144/38
f 98/145/38 101/134/38 97/144/38
f 105/137/38 110/146/38 109/143/38
f 104/133/37 99/147/37 100/142/37
f 108/135/37 111/148/37 107/149/37
f 99/147/36 102/132/36 98/145/36
f 107/149/36 110/146/36 106/136/36
f 100/129/33 99/150/33 98/130/33
f 102/132/34 103/151/34 104/133/34
f 108/135/33 107/149/33 106/136/33
f 110/138/34 111/152/34 112/139/34
f 109/140/35 112/139/35 100/129/35
f 104/133/36 108/135/36 105/137/36
f 112/141/37 108/135/37 104/133/37
f 101/134/38 105/137/38 109/143/38
f 98/145/38 102/132/38 101/134/38
f 105/137/38 106/136/38 110/146/38
f 104/133/37 103/151/37 99/147/37
f 108/135/37 112/141/37 111/148/37
f 99/147/36 103/151/36 102/132/36
f 107/149/36 111/148/36 110/146/36
usemtl Book4_side_material.005
f 116/153/37 114/154/37 113/155/37
f 118/156/38 120/157/38 117/158/38
f 115/159/36 118/156/36 114/154/36
f 116/153/37 115/159/37 114/154/37
f 118/156/38 119/160/38 120/157/38
f 115/159/36 119/160/36 118/156/36
