# Blender v2.82 (sub 7) OBJ File: 'table.obj.blend'
# www.blender.org
mtllib table.mtl
o Cube
v 4.199835 5.651179 -5.091777
v 4.199835 6.057770 -5.091777
v 4.199835 5.651179 4.585071
v 4.199835 6.057770 4.585071
v -5.477013 5.651179 -5.091777
v -5.477013 6.057770 -5.091777
v -5.477013 5.651179 4.585071
v -5.477013 6.057770 4.585071
v -5.477013 6.057770 -4.537884
v 4.199835 5.651179 -4.537884
v -5.477013 5.651179 -4.537884
v 4.199835 6.057770 -4.537884
v -5.477013 6.057770 4.029192
v 4.199835 5.651179 4.029192
v -5.477013 5.651179 4.029192
v 4.199835 6.057770 4.029192
v -5.477013 5.651179 3.556863
v 4.199835 6.057770 3.556863
v -5.477013 6.057770 3.556863
v 4.199835 5.651179 3.556863
v -5.477013 5.651179 -4.048282
v 4.199835 6.057770 -4.048282
v -5.477013 6.057770 -4.048282
v 4.199835 5.651179 -4.048282
v -4.986633 6.057770 -5.091777
v -4.986633 5.651179 4.585071
v -4.986633 6.057770 4.585071
v -4.986633 5.651179 -5.091777
v -4.986633 6.057770 -4.537884
v -4.986633 5.651179 -4.537884
v -4.986633 6.057770 4.029192
v -4.986633 5.651179 4.029192
v -4.986633 5.651179 3.556863
v -4.986633 6.057770 3.556863
v -4.986633 6.057770 -4.048282
v -4.986633 5.651179 -4.048282
v -4.479906 6.057770 4.585071
v -4.479906 5.651179 -5.091777
v -4.479906 5.651179 -4.537884
v -4.479906 5.651179 4.029192
v -4.479906 5.651179 3.556863
v -4.479906 5.651179 -4.048282
v -4.479906 6.057770 -5.091777
v -4.479906 5.651179 4.585071
v -4.479906 6.057770 -4.537884
v -4.479906 6.057770 4.029192
v -4.479906 6.057770 3.556863
v -4.479906 6.057770 -4.048282
v 3.675775 6.057770 4.585071
v 3.675775 5.651179 -5.091777
v 3.675775 5.651179 -4.537884
v 3.675775 5.651179 4.029192
v 3.675775 5.651179 3.556863
v 3.675775 5.651179 -4.048282
v 3.675775 6.057770 -5.091777
v 3.675775 5.651179 4.585071
v 3.675775 6.057770 -4.537884
v 3.675775 6.057770 4.029192
v 3.675775 6.057770 3.556863
v 3.675775 6.057770 -4.048282
v 3.184469 6.057770 -5.091777
v 3.184469 5.651179 4.585071
v 3.184469 6.057770 -4.537884
v 3.184469 6.057770 4.029192
v 3.184469 6.057770 3.556863
v 3.184469 6.057770 -4.048282
v 3.184469 6.057770 4.585071
v 3.184469 5.651179 -5.091777
v 3.184469 5.651179 -4.537884
v 3.184469 5.651179 4.029192
v 3.184469 5.651179 3.556863
v 3.184469 5.651179 -4.048282
v -4.986633 -0.005809 -4.537884
v -4.986633 -0.005809 -4.048282
v -4.986633 -0.005809 3.556863
v -4.986633 -0.005809 4.029192
v -4.479906 -0.005809 -4.537884
v -4.479906 -0.005809 4.029192
v -4.479906 -0.005809 3.556863
v -4.479906 -0.005809 -4.048282
v 3.184469 -0.005809 -4.537884
v 3.675775 -0.005809 -4.537884
v 3.184469 -0.005809 4.029192
v 3.675775 -0.005809 4.029192
v 3.184469 -0.005809 3.556863
v 3.675775 -0.005809 3.556863
v 3.184469 -0.005809 -4.048282
v 3.675775 -0.005809 -4.048282
v -4.986633 -0.006169 -4.537884
v -4.986633 -0.006169 -4.048282
v -4.986633 -0.006169 3.556863
v -4.986633 -0.006169 4.029192
v -4.479906 -0.006169 -4.537884
v -4.479906 -0.006169 4.029192
v -4.479906 -0.006169 3.556863
v -4.479906 -0.006169 -4.048282
v 3.184469 -0.006169 -4.537884
v 3.675775 -0.006169 -4.537884
v 3.184469 -0.006169 4.029192
v 3.675775 -0.006169 4.029192
v 3.184469 -0.006169 3.556863
v 3.675775 -0.006169 3.556863
v 3.184469 -0.006169 -4.048282
v 3.675775 -0.006169 -4.048282
vt 0.862331 0.735639
vt 0.862331 0.750000
vt 0.875000 0.750000
vt 0.875000 0.735639
vt 0.375000 0.987331
vt 0.375000 1.000000
vt 0.625000 1.000000
vt 0.625000 0.987331
vt 0.375000 0.235690
vt 0.375000 0.250000
vt 0.625000 0.250000
vt 0.625000 0.235690
vt 0.361461 0.735639
vt 0.361461 0.750000
vt 0.375000 0.750000
vt 0.375000 0.735639
vt 0.625000 0.750000
vt 0.625000 0.735639
vt 0.375000 0.486461
vt 0.375000 0.500000
vt 0.625000 0.500000
vt 0.625000 0.486461
vt 0.375000 0.514310
vt 0.625000 0.514310
vt 0.361461 0.500000
vt 0.361461 0.514310
vt 0.375000 0.223041
vt 0.625000 0.223041
vt 0.862331 0.500000
vt 0.862331 0.514310
vt 0.875000 0.514310
vt 0.875000 0.500000
vt 0.375000 0.000000
vt 0.375000 0.014361
vt 0.625000 0.014361
vt 0.625000 0.000000
vt 0.375000 0.723436
vt 0.625000 0.723436
vt 0.361461 0.723436
vt 0.862331 0.723436
vt 0.875000 0.723436
vt 0.862331 0.526959
vt 0.875000 0.526959
vt 0.361461 0.526959
vt 0.375000 0.526959
vt 0.625000 0.526959
vt 0.375000 0.026564
vt 0.625000 0.026564
vt 0.849240 0.514310
vt 0.849240 0.514310
vt 0.862331 0.514310
vt 0.125000 0.514310
vt 0.125000 0.526959
vt 0.137669 0.526959
vt 0.137669 0.514310
vt 0.125000 0.723436
vt 0.137669 0.723436
vt 0.849240 0.526959
vt 0.849240 0.723436
vt 0.651232 0.723436
vt 0.651232 0.723436
vt 0.651232 0.735639
vt 0.651232 0.735639
vt 0.125000 0.735639
vt 0.137669 0.735639
vt 0.849240 0.500000
vt 0.125000 0.500000
vt 0.137669 0.500000
vt 0.375000 0.262669
vt 0.625000 0.262669
vt 0.125000 0.750000
vt 0.137669 0.750000
vt 0.375000 0.974240
vt 0.625000 0.974240
vt 0.849240 0.735639
vt 0.849240 0.750000
vt 0.651232 0.750000
vt 0.375000 0.776232
vt 0.625000 0.776232
vt 0.651232 0.500000
vt 0.651232 0.514310
vt 0.651232 0.526959
vt 0.150760 0.526959
vt 0.150760 0.514310
vt 0.150760 0.723436
vt 0.150760 0.735639
vt 0.150760 0.500000
vt 0.375000 0.275760
vt 0.625000 0.275760
vt 0.150760 0.750000
vt 0.638539 0.526959
vt 0.638539 0.514310
vt 0.638539 0.723436
vt 0.638539 0.735639
vt 0.638539 0.500000
vt 0.375000 0.763539
vt 0.625000 0.763539
vt 0.638539 0.750000
vt 0.348768 0.514310
vt 0.348768 0.526959
vt 0.348768 0.723436
vt 0.348768 0.735639
vt 0.348768 0.500000
vt 0.375000 0.473768
vt 0.625000 0.473768
vt 0.348768 0.750000
vt 0.638539 0.735639
vt 0.638539 0.723436
vt 0.849240 0.735639
vt 0.849240 0.723436
vt 0.849240 0.723436
vt 0.862331 0.723436
vt 0.862331 0.723436
vt 0.651232 0.526959
vt 0.651232 0.526959
vt 0.638539 0.526959
vt 0.638539 0.526959
vt 0.862331 0.735639
vt 0.862331 0.735639
vt 0.849240 0.735639
vt 0.638539 0.723436
vt 0.651232 0.723436
vt 0.849240 0.526959
vt 0.862331 0.526959
vt 0.638539 0.514310
vt 0.651232 0.514310
vt 0.849240 0.514310
vt 0.849240 0.526959
vt 0.862331 0.526959
vt 0.862331 0.514310
vt 0.638539 0.514310
vt 0.651232 0.514310
vt 0.638539 0.735639
vt 0.651232 0.735639
vn 0.0000 -1.0000 0.0000
vn 0.0000 0.0000 1.0000
vn -1.0000 0.0000 0.0000
vn 0.0000 1.0000 0.0000
vn 1.0000 0.0000 0.0000
vn 0.0000 0.0000 -1.0000
usemtl Material
s off
f 32/1/1 26/2/1 7/3/1 15/4/1
f 27/5/2 8/6/2 7/7/2 26/8/2
f 9/9/3 6/10/3 5/11/3 11/12/3
f 58/13/4 49/14/4 4/15/4 16/16/4
f 16/16/5 4/15/5 3/17/5 14/18/5
f 55/19/6 2/20/6 1/21/6 50/22/6
f 2/20/5 12/23/5 10/24/5 1/21/5
f 55/25/4 57/26/4 12/23/4 2/20/4
f 23/27/3 9/9/3 11/12/3 21/28/3
f 28/29/1 30/30/1 11/31/1 5/32/1
f 8/33/3 13/34/3 15/35/3 7/36/3
f 18/37/5 16/16/5 14/18/5 20/38/5
f 59/39/4 58/13/4 16/16/4 18/37/4
f 33/40/1 32/1/1 15/4/1 17/41/1
f 36/42/1 33/40/1 17/41/1 21/43/1
f 60/44/4 59/39/4 18/37/4 22/45/4
f 22/45/5 18/37/5 20/38/5 24/46/5
f 13/34/3 19/47/3 17/48/3 15/35/3
f 12/23/5 22/45/5 24/46/5 10/24/5
f 57/26/4 60/44/4 22/45/4 12/23/4
f 30/30/1 36/42/1 21/43/1 11/31/1
f 19/47/3 23/27/3 21/28/3 17/48/3
f 39/49/6 77/50/6 73/51/6 30/30/6
f 9/52/4 23/53/4 35/54/4 29/55/4
f 23/53/4 19/56/4 34/57/4 35/54/4
f 42/58/1 41/59/1 33/40/1 36/42/1
f 71/60/3 85/61/3 83/62/3 70/63/3
f 19/56/4 13/64/4 31/65/4 34/57/4
f 38/66/1 39/49/1 30/30/1 28/29/1
f 6/67/4 9/52/4 29/55/4 25/68/4
f 6/10/6 25/69/6 28/70/6 5/11/6
f 13/64/4 8/71/4 27/72/4 31/65/4
f 37/73/2 27/5/2 26/8/2 44/74/2
f 40/75/1 44/76/1 26/2/1 32/1/1
f 70/63/1 62/77/1 44/76/1 40/75/1
f 67/78/2 37/73/2 44/74/2 62/79/2
f 68/80/1 69/81/1 39/49/1 38/66/1
f 71/60/1 70/63/1 40/75/1 41/59/1
f 72/82/1 71/60/1 41/59/1 42/58/1
f 69/81/1 72/82/1 42/58/1 39/49/1
f 29/55/4 35/54/4 48/83/4 45/84/4
f 35/54/4 34/57/4 47/85/4 48/83/4
f 34/57/4 31/65/4 46/86/4 47/85/4
f 25/68/4 29/55/4 45/84/4 43/87/4
f 25/69/6 43/88/6 38/89/6 28/70/6
f 31/65/4 27/72/4 37/90/4 46/86/4
f 10/24/1 24/46/1 54/91/1 51/92/1
f 24/46/1 20/38/1 53/93/1 54/91/1
f 20/38/1 14/18/1 52/94/1 53/93/1
f 1/21/1 10/24/1 51/92/1 50/95/1
f 4/15/2 49/96/2 56/97/2 3/17/2
f 14/18/1 3/17/1 56/98/1 52/94/1
f 63/99/4 66/100/4 60/44/4 57/26/4
f 66/100/4 65/101/4 59/39/4 60/44/4
f 65/101/4 64/102/4 58/13/4 59/39/4
f 61/103/4 63/99/4 57/26/4 55/25/4
f 61/104/6 55/19/6 50/22/6 68/105/6
f 64/102/4 67/106/4 49/14/4 58/13/4
f 46/86/4 37/90/4 67/106/4 64/102/4
f 43/88/6 61/104/6 68/105/6 38/89/6
f 43/87/4 45/84/4 63/99/4 61/103/4
f 47/85/4 46/86/4 64/102/4 65/101/4
f 48/83/4 47/85/4 65/101/4 66/100/4
f 45/84/4 48/83/4 66/100/4 63/99/4
f 52/94/5 84/107/5 86/108/5 53/93/5
f 54/91/1 53/93/1 71/60/1 72/82/1
f 40/75/5 78/109/5 79/110/5 41/59/5
f 50/95/1 51/92/1 69/81/1 68/80/1
f 49/96/2 67/78/2 62/79/2 56/97/2
f 52/94/1 56/98/1 62/77/1 70/63/1
f 79/110/6 95/111/6 91/112/6 75/113/6
f 87/114/2 103/115/2 104/116/2 88/117/2
f 76/118/2 92/119/2 94/120/2 78/109/2
f 86/108/6 102/121/6 101/122/6 85/61/6
f 42/58/5 80/123/5 77/50/5 39/49/5
f 30/30/3 73/51/3 74/124/3 36/42/3
f 32/1/2 76/118/2 78/109/2 40/75/2
f 51/92/6 82/125/6 81/126/6 69/81/6
f 41/59/6 79/110/6 75/113/6 33/40/6
f 70/63/2 83/62/2 84/107/2 52/94/2
f 36/42/2 74/124/2 80/123/2 42/58/2
f 53/93/6 86/108/6 85/61/6 71/60/6
f 54/91/5 88/117/5 82/125/5 51/92/5
f 69/81/3 81/126/3 87/114/3 72/82/3
f 33/40/3 75/113/3 76/118/3 32/1/3
f 72/82/2 87/114/2 88/117/2 54/91/2
f 93/127/1 96/128/1 90/129/1 89/130/1
f 95/111/1 94/120/1 92/119/1 91/112/1
f 98/131/1 104/116/1 103/115/1 97/132/1
f 102/121/1 100/133/1 99/134/1 101/122/1
f 88/117/5 104/116/5 98/131/5 82/125/5
f 74/124/2 90/129/2 96/128/2 80/123/2
f 84/107/5 100/133/5 102/121/5 86/108/5
f 78/109/5 94/120/5 95/111/5 79/110/5
f 81/126/3 97/132/3 103/115/3 87/114/3
f 80/123/5 96/128/5 93/127/5 77/50/5
f 73/51/3 89/130/3 90/129/3 74/124/3
f 85/61/3 101/122/3 99/134/3 83/62/3
f 82/125/6 98/131/6 97/132/6 81/126/6
f 75/113/3 91/112/3 92/119/3 76/118/3
f 83/62/2 99/134/2 100/133/2 84/107/2
f 77/50/6 93/127/6 89/130/6 73/51/6
